<svg xmlns="http://www.w3.org/2000/svg" viewBox="0 0 440.8 440.8"><path class="icon-10" d="M431 217.7l-7.5-7.5c-29-29-74.7-31.1-106.2-6.4 -1.5-8.9-4.2-17.7-8.2-26.1 -2.4-5-8.3-7.1-13.3-4.7 -5 2.4-7.1 8.4-4.7 13.3 12.7 26.6 9.3 57.9-8.1 81 -1.5-12.5-6.5-23.5-14.8-31.9 -7.8-7.8-17.4-12.9-28.1-15.3l17.3-209.4c0.2-2.8-0.7-5.5-2.6-7.6C252.9 1.2 250.2 0 247.4 0H16.9c-2.8 0-5.5 1.2-7.4 3.2C7.6 5.3 6.7 8 6.9 10.8l34.9 420.8c0.4 5.2 4.8 9.2 10 9.2h178.1c0.3 0 0.5 0 0.8 0 7 0 14.1-0.7 21.1-2.1 26.4-5.4 46.4-14.7 59.3-27.6 17.2-17.2 28.9-38.2 32.9-58.9 4.2-22.2-0.7-41.6-13.8-54.8 -8.7-8.7-20.3-13.8-33.6-15 9.2-11.3 15.6-24.3 19.1-38 14.8 12.3 33 18.4 51.2 18.4 20.5 0 41.1-7.8 56.7-23.5l7.5-7.5c1.9-1.9 2.9-4.4 2.9-7.1C434 222.2 432.9 219.6 431 217.7zM261.6 289.9l-98.2 98.3c-15.6-19.7-21.9-45.3-16.8-70.3 3.9-19.2 15.4-42.2 26.7-53.5 14-14 30.3-23 45.7-25.1 2.4-0.3 4.8-0.5 7.1-0.5 11 0 20.8 3.8 27.9 10.9C262.9 258.6 265.6 273.2 261.6 289.9zM236.6 20l-4.3 52.3h-15.8l2.5-32.3c0.4-5.5-3.7-10.3-9.2-10.7 -5.5-0.4-10.3 3.7-10.7 9.2l-2.6 33.9H32.1L27.7 20H236.6zM60.9 420.8L33.7 92.3h161.1l-3 39.3c-0.4 5.5 3.7 10.3 9.2 10.7 0.3 0 0.5 0 0.8 0 5.2 0 9.6-4 10-9.2l3.1-40.8h15.7l-10.5 126.7c-1.3 0.1-2.6 0.3-3.9 0.4 -19.7 2.8-40 13.7-57.1 30.8 -14.2 14.2-27.4 40.4-32.2 63.7 -7.1 34.8 3.7 70.7 28.9 95.9 0 0 0 0 0 0 0 0 0 0 0 0 4.1 4.1 8.4 7.7 13 11H60.9zM296.9 397c-10.1 10.1-26.7 17.6-49.2 22.1 -25 5.1-50.6-1.2-70.3-16.8l98.3-98.2c16.7-4.1 31.3-1.4 40.3 7.6C333.9 329.6 325.2 368.7 296.9 397zM409.4 225.2c-23.5 23.5-61.7 23.5-85.1 0l-0.4-0.4 0.4-0.4c23.5-23.5 61.7-23.5 85.1 0l0.4 0.4L409.4 225.2z"/><path d="M246.9 338.1l-12 12c-3.9 3.9-3.9 10.2 0 14.1 2 2 4.5 2.9 7.1 2.9s5.1-1 7.1-2.9l12-12c3.9-3.9 3.9-10.2 0-14.1S250.8 334.2 246.9 338.1z"/><path d="M213.9 305.1l-12 12c-3.9 3.9-3.9 10.2 0 14.1 2 2 4.5 2.9 7.1 2.9 2.6 0 5.1-1 7.1-2.9l12-12c3.9-3.9 3.9-10.2 0-14.1S217.8 301.2 213.9 305.1z"/><path d="M196.2 205.2c0.3 0 0.5 0 0.8 0 5.2 0 9.6-4 10-9.2l1.8-23.9c0.4-5.5-3.7-10.3-9.2-10.7 -5.5-0.4-10.3 3.7-10.7 9.2l-1.8 23.9C186.5 199.9 190.7 204.7 196.2 205.2z"/></svg>
