<svg xmlns="http://www.w3.org/2000/svg" viewBox="0 0 512 512"><path class="icon-11" d="M482 332.6V45c0-24.8-20.2-45-45-45H106C81.2 0 61 20.2 61 45v16H45C20.2 61 0 81.2 0 106s20.2 45 45 45h16v60H45c-24.8 0-45 20.2-45 45s20.2 45 45 45h16v60H45c-24.8 0-45 20.2-45 45s20.2 45 45 45h16v15c0 12 4.6 23.3 12.9 32.1C82.5 507.1 93.9 512 106 512h301c57.9 0 105-47.6 105-106C512 377.5 500.5 351.5 482 332.6zM45 121c-8.3 0-15-6.7-15-15s6.7-15 15-15h31c8.3 0 15 6.7 15 15s-6.7 15-15 15H45zM45 271c-8.3 0-15-6.7-15-15s6.7-15 15-15h31c8.3 0 15 6.7 15 15s-6.7 15-15 15H45zM76 421H45c-8.3 0-15-6.7-15-15s6.7-15 15-15h31c8.3 0 15 6.7 15 15S84.3 421 76 421zM106 482c-8 0-15-7.5-15-16v-17.6c17.5-6.2 30-22.9 30-42.4 0-19.6-12.5-36.2-30-42.4v-65.2c17.5-6.2 30-22.9 30-42.4 0-19.6-12.5-36.2-30-42.4v-65.2c17.5-6.2 30-22.9 30-42.4s-12.5-36.2-30-42.4V45c0-8.3 6.7-15 15-15h331c8.3 0 15 6.7 15 15v266.1c-13.6-6.5-28.9-10.1-45-10.1 -57.9 0-105 47.1-105 105 0 29.8 12.2 56.7 31.9 76H106zM407 482c-41.4 0-75-34.1-75-76 0-41.4 33.6-75 75-75 41.4 0 75 33.6 75 75C482 447.9 448.4 482 407 482z"/><path class="icon-11" d="M407 121h-90c-8.3 0-15 6.7-15 15s6.7 15 15 15h90c8.3 0 15-6.7 15-15S415.3 121 407 121z"/><path class="icon-11" d="M407 241h-90c-8.3 0-15 6.7-15 15s6.7 15 15 15h90c8.3 0 15-6.7 15-15S415.3 241 407 241z"/><path class="icon-11" d="M437 391h-15v-15c0-8.3-6.7-15-15-15s-15 6.7-15 15v30c0 8.3 6.7 15 15 15h30c8.3 0 15-6.7 15-15S445.3 391 437 391z"/><path class="icon-11" d="M266.6 95.4c-5.9-5.9-15.4-5.9-21.2 0L196 144.8l-23.6-23.6c-5.9-5.9-15.4-5.9-21.2 0 -5.9 5.9-5.9 15.4 0 21.2l34.2 34.2C188.3 179.5 192.2 181 196 181s7.7-1.5 10.6-4.4l60-60C272.5 110.7 272.5 101.3 266.6 95.4z"/><path class="icon-11" d="M266.6 215.4c-5.9-5.9-15.4-5.9-21.2 0L196 264.8l-23.6-23.6c-5.9-5.9-15.4-5.9-21.2 0 -5.9 5.9-5.9 15.4 0 21.2l34.2 34.2C188.3 299.5 192.2 301 196 301s7.7-1.5 10.6-4.4l60-60C272.5 230.7 272.5 221.3 266.6 215.4z"/><path class="icon-11" d="M266.6 335.4c-5.9-5.9-15.4-5.9-21.2 0L196 384.8l-23.6-23.6c-5.9-5.9-15.4-5.9-21.2 0 -5.9 5.9-5.9 15.4 0 21.2l34.2 34.2C188.3 419.5 192.2 421 196 421s7.7-1.5 10.6-4.4l60-60C272.5 350.7 272.5 341.3 266.6 335.4z"/></svg>
