<svg xmlns="http://www.w3.org/2000/svg" viewBox="0 0 512 512"><path class="icon-7" d="M501.3 341.3h-32v-10.7c0-17.6-14.4-32-32-32 -3.7 0-7.3 0.7-10.7 1.8v-1.8c0-17.6-14.4-32-32-32s-32 14.4-32 32v42.7h-56c8.7-19.9 13.3-41.6 13.3-64 0-42.7-16.7-82.9-46.9-113.1 -5.4-5.4-11.1-10.4-17.1-14.9V64c0-17.6-14.4-32-32-32H96c-17.7 0-32 14.4-32 32v85.3c-6 4.5-11.7 9.5-17.1 14.9C16.6 194.4 0 234.6 0 277.3c0 49.3 22.2 95.1 61 125.7 1.9 1.5 4.2 2.3 6.6 2.3h49.7 32v10.7c0 17.6 14.4 32 32 32 3.7 0 7.3-0.7 10.7-1.8v1.8c0 17.7 14.3 32 32 32 17.6 0 32-14.3 32-32v-42.7h106.7v42.7c0 17.7 14.4 32 32 32s32-14.3 32-32v-1.8c3.3 1.2 6.9 1.8 10.7 1.8 17.6 0 32-14.4 32-32v-10.7h32c5.9 0 10.7-4.8 10.7-10.7v-42.7C512 346.1 507.2 341.3 501.3 341.3zM85.3 64c0-5.9 4.8-10.7 10.7-10.7h128c5.9 0 10.7 4.8 10.7 10.7v71.7c-3.5-1.8-7-3.6-10.7-5.1V85.3c0-11.8-9.6-21.3-21.3-21.3h-85.3c-11.8 0-21.3 9.6-21.3 21.3v45.3c-3.6 1.6-7.2 3.3-10.7 5.1V64zM202.7 85.3v37.7h0c-13.7-3.8-28-5.7-42.7-5.7 -14.6 0-29 1.9-42.7 5.7V85.3H202.7zM149.3 384h-21.3c2.7 0 5.5-1 7.5-3.1 4.2-4.2 4.2-10.9 0-15.1 -2.1-2.1-4.8-3.1-7.5-3.1h21.3V384zM192 416c0 5.9-4.8 10.7-10.7 10.7 -5.9 0-10.7-4.8-10.7-10.7v-85.3c0-5.9 4.8-10.7 10.7-10.7 5.9 0 10.7 4.8 10.7 10.7V416zM234.7 448c0 5.9-4.8 10.7-10.7 10.7 -5.9 0-10.7-4.8-10.7-10.7v-32 -85.3 -32c0-5.9 4.8-10.7 10.7-10.7 5.9 0 10.7 4.8 10.7 10.7V448zM224 266.7c-17.7 0-32 14.4-32 32v1.8c-3.3-1.2-6.9-1.8-10.7-1.8 -17.6 0-32 14.4-32 32v10.7h-32c-5.9 0-10.7 4.8-10.7 10.7v32H71.4c-31.9-26.5-50.1-65.1-50.1-106.7 0-76.5 62.2-138.7 138.7-138.7 76.5 0 138.7 62.2 138.7 138.7 0 22.7-5.4 44.5-15.6 64h-27.1v-42.7C256 281 241.6 266.7 224 266.7zM362.7 384H256v-21.3h106.7V384zM405.3 330.7v85.3 32c0 5.9-4.8 10.7-10.7 10.7 -5.9 0-10.7-4.8-10.7-10.7V298.7c0-5.9 4.8-10.7 10.7-10.7 5.9 0 10.7 4.8 10.7 10.7V330.7zM448 416c0 5.9-4.8 10.7-10.7 10.7 -5.9 0-10.7-4.8-10.7-10.7v-85.3c0-5.9 4.8-10.7 10.7-10.7 5.9 0 10.7 4.8 10.7 10.7V416zM469.3 384v-21.3h21.3c-2.7 0-5.5 1.1-7.5 3.1 -4.2 4.2-4.2 10.9 0 15.1 2.1 2.1 4.8 3.1 7.5 3.1H469.3z"/></svg>
