<svg xmlns="http://www.w3.org/2000/svg" width="181" height="181" viewBox="0 0 180.7 180.7"><path class="icon-8" d="M169.3 71c6.8-19.6 0.9-34.9-16.2-42 -10-4.1-19.3-3.2-26.5 2.3V3.1C126.6 1.4 125.3 0 123.5 0c-1.7 0-3.1 1.4-3.1 3.1v7.2c-1.2-1.5-2.7-2.9-4.5-3.9 -2.5-1.4-5.4-2.1-8.8-2.1 -4.4 0-8.1 1.3-8.3 1.3 -1.5 0.5-2.3 2-2 3.6 0.1 0.4 2.1 10.1 9.5 14.2 2.5 1.4 5.4 2.1 8.8 2.1 2 0 3.9-0.3 5.3-0.6v6.4c-7.2-5.5-16.5-6.4-26.5-2.3C76.9 36.2 71 51.5 77.7 71.1c6.5 18.7 23.4 38.7 38.2 38.7 1.9 0 3.6-0.4 5.3-1 0 0.2 0 0.4 0 0.7 1.9 9 5.6 17.8 11 26.2 1.1 1.6 2.3 3.6 3.6 5.7 -14.7 5.9-31.3 9.1-48.2 9.1 0 0 0 0 0 0 -17.5 0-34.6-3.4-49.7-9.8 1.1-1.9 2.2-3.6 3.2-5.1C72.5 87 34.4 44.3 34 43.8c-1.2-1.3-3.1-1.4-4.4-0.2 -1.3 1.2-1.4 3.1-0.2 4.4 0.4 0.4 35.3 39.6 6.5 84.3 -5.9 9.1-16.9 26.2-15 45.6 0.1 1.6 1.5 2.8 3.1 2.8 0.1 0 0.2 0 0.3 0 1.7-0.2 3-1.7 2.8-3.4 -1.1-11.6 3.2-22.5 7.7-31 16.1 6.9 34.3 10.5 52.9 10.5 0 0 0 0 0 0 17.9 0 35.6-3.4 51.3-9.8 4.4 8.4 8.4 19.1 7.4 30.3 -0.2 1.7 1.1 3.2 2.8 3.4 0.1 0 0.2 0 0.3 0 1.6 0 2.9-1.2 3.1-2.8 1.8-19.4-9.1-36.4-15-45.6 -4.8-7.4-8-15.1-9.8-22.9 1.1 0.2 2.2 0.4 3.4 0.4C146 109.8 162.9 89.7 169.3 71zM109.4 18c-2.9-1.6-4.6-4.8-5.5-7.2 2.8-0.5 6.6-0.3 9 1 2.9 1.6 4.6 4.8 5.5 7.2C115.6 19.5 111.7 19.4 109.4 18zM83.6 69c-7.2-20.9 2.9-30.1 12.7-34.2 10.1-4.2 18.7-2.2 24.7 6.1 0 0.1 0.1 0.1 0.2 0.1 0.2 0.2 0.5 0.4 0.7 0.6 0.1 0.1 0.2 0.2 0.3 0.2 0.4 0.2 0.8 0.3 1.3 0.3 0.5 0 0.9-0.1 1.3-0.3 0.1-0.1 0.2-0.1 0.3-0.2 0.3-0.2 0.5-0.4 0.7-0.6 0-0.1 0.1-0.1 0.2-0.1 5.9-8.3 14.5-10.3 24.7-6.1 9.8 4 19.9 13.3 12.7 34.2 -6.9 20.1-25.3 38.2-35.8 33.8 -0.6-0.3-1.3-0.7-2.2-1.4 -0.6-0.4-1.2-0.7-1.9-0.7 -0.7 0-1.4 0.2-1.9 0.7 -0.8 0.7-1.5 1.1-2.2 1.4C109.1 107.2 90.6 89.2 83.6 69zM86.7 137.4c-3.5 0-6.4-2.9-6.4-6.4 0-3.5 2.9-6.4 6.4-6.4 3.5 0 6.4 2.9 6.4 6.4C93.1 134.5 90.2 137.4 86.7 137.4zM21 95.9H8.6V76.4h12.4v-7.8L38.6 86.2l-17.6 17.6V95.9z"/></svg>
